<mxfile host="app.diagrams.net" modified="2023-06-16T16:32:15.817Z" agent="Mozilla/5.0 (Windows NT 10.0; Win64; x64) AppleWebKit/537.36 (KHTML, like Gecko) Chrome/114.0.0.0 Safari/537.36 Edg/114.0.1823.43" etag="65ieylmRdkncY7YN7K1l" version="21.4.0" type="github">
  <diagram name="Page-1" id="3bkDyOJA74kadFn5YsJY">
    <mxGraphModel dx="1434" dy="756" grid="1" gridSize="10" guides="1" tooltips="1" connect="1" arrows="1" fold="1" page="1" pageScale="1" pageWidth="850" pageHeight="1100" math="0" shadow="0">
      <root>
        <mxCell id="0" />
        <mxCell id="1" parent="0" />
        <mxCell id="PXKWk6Zfghh3mpXKCnwU-3" value="Keuken" style="rounded=0;whiteSpace=wrap;html=1;" vertex="1" parent="1">
          <mxGeometry x="110" y="60" width="70" height="190" as="geometry" />
        </mxCell>
        <mxCell id="PXKWk6Zfghh3mpXKCnwU-4" value="Woonkamer" style="rounded=0;whiteSpace=wrap;html=1;" vertex="1" parent="1">
          <mxGeometry x="110" y="260" width="70" height="260" as="geometry" />
        </mxCell>
        <mxCell id="PXKWk6Zfghh3mpXKCnwU-5" value="" style="rounded=0;whiteSpace=wrap;html=1;" vertex="1" parent="1">
          <mxGeometry x="250" y="270" width="80" height="50" as="geometry" />
        </mxCell>
        <mxCell id="PXKWk6Zfghh3mpXKCnwU-6" value="H: 30" style="rounded=0;whiteSpace=wrap;html=1;" vertex="1" parent="1">
          <mxGeometry x="340" y="270" width="230" height="50" as="geometry" />
        </mxCell>
        <mxCell id="PXKWk6Zfghh3mpXKCnwU-7" value="56 x 119" style="rounded=0;whiteSpace=wrap;html=1;" vertex="1" parent="1">
          <mxGeometry x="250" y="330" width="80" height="170" as="geometry" />
        </mxCell>
        <mxCell id="PXKWk6Zfghh3mpXKCnwU-8" value="160 x 130" style="rounded=0;whiteSpace=wrap;html=1;" vertex="1" parent="1">
          <mxGeometry x="340" y="330" width="230" height="170" as="geometry" />
        </mxCell>
        <mxCell id="PXKWk6Zfghh3mpXKCnwU-9" value="60 x 126" style="rounded=0;whiteSpace=wrap;html=1;" vertex="1" parent="1">
          <mxGeometry x="580" y="330" width="110" height="170" as="geometry" />
        </mxCell>
        <mxCell id="PXKWk6Zfghh3mpXKCnwU-10" value="56 x 130" style="rounded=0;whiteSpace=wrap;html=1;" vertex="1" parent="1">
          <mxGeometry x="700" y="330" width="70" height="170" as="geometry" />
        </mxCell>
        <mxCell id="PXKWk6Zfghh3mpXKCnwU-11" value="" style="rounded=0;whiteSpace=wrap;html=1;" vertex="1" parent="1">
          <mxGeometry x="580" y="270" width="190" height="50" as="geometry" />
        </mxCell>
        <mxCell id="PXKWk6Zfghh3mpXKCnwU-13" value="" style="rounded=0;whiteSpace=wrap;html=1;" vertex="1" parent="1">
          <mxGeometry x="600" y="440" width="30" height="10" as="geometry" />
        </mxCell>
      </root>
    </mxGraphModel>
  </diagram>
</mxfile>
